<svg width="97" height="97" viewBox="0 0 97 97" fill="none" xmlns="http://www.w3.org/2000/svg">
<g id="iconstack.io - (Food Fork Drink)">
<path id="Vector" d="M12.1257 12.1247C11.0537 12.1247 10.0257 12.5505 9.26776 13.3085C8.5098 14.0664 8.08398 15.0944 8.08398 16.1663V32.333V38.3955C8.08398 45.2259 12.2469 51.0459 18.1882 53.4305V78.8122C18.1882 80.42 18.8269 81.9621 19.9638 83.099C21.1008 84.2359 22.6428 84.8747 24.2507 84.8747C25.8585 84.8747 27.4005 84.2359 28.5375 83.099C29.6744 81.9621 30.3132 80.42 30.3132 78.8122V53.4305C36.2544 51.0459 40.4173 45.2259 40.4173 38.3955V32.333V16.1663C40.4173 15.0944 39.9915 14.0664 39.2335 13.3085C38.4756 12.5505 37.4476 12.1247 36.3757 12.1247C35.3037 12.1247 34.2757 12.5505 33.5178 13.3085C32.7598 14.0664 32.334 15.0944 32.334 16.1663V32.333C32.334 32.869 32.1211 33.383 31.7421 33.762C31.3631 34.1409 30.8491 34.3538 30.3132 34.3538C29.7772 34.3538 29.2632 34.1409 28.8842 33.762C28.5052 33.383 28.2923 32.869 28.2923 32.333V16.1663C28.2923 15.0944 27.8665 14.0664 27.1085 13.3085C26.3506 12.5505 25.3226 12.1247 24.2507 12.1247C23.1787 12.1247 22.1507 12.5505 21.3928 13.3085C20.6348 14.0664 20.209 15.0944 20.209 16.1663V32.333C20.209 32.869 19.9961 33.383 19.6171 33.762C19.2381 34.1409 18.7241 34.3538 18.1882 34.3538C17.6522 34.3538 17.1382 34.1409 16.7592 33.762C16.3802 33.383 16.1673 32.869 16.1673 32.333V16.1663C16.1673 15.0944 15.7415 14.0664 14.9835 13.3085C14.2256 12.5505 13.1976 12.1247 12.1257 12.1247ZM80.349 12.1247C79.8236 12.1247 79.2981 12.4884 78.8131 12.7713L64.6673 21.2184V36.3747H48.5006V44.458H52.5423L56.584 84.8747H80.834L84.8756 44.458H88.9173V36.3747H72.7506V25.6238L82.8548 19.5613C84.8756 18.4297 85.4011 16.1663 84.229 14.1455C83.3802 12.6905 81.8848 11.9226 80.349 12.1247Z" fill="#FFF5E6" stroke="#FFF5E6"/>
</g>
</svg>
