<svg width="36" height="36" viewBox="0 0 36 36" fill="none" xmlns="http://www.w3.org/2000/svg">
<g id="Brasil">
<path id="vector" d="M36 27C36 28.0609 35.5786 29.0783 34.8284 29.8284C34.0783 30.5786 33.0609 31 32 31H4C2.93913 31 1.92172 30.5786 1.17157 29.8284C0.421427 29.0783 0 28.0609 0 27V9C0 7.93913 0.421427 6.92172 1.17157 6.17157C1.92172 5.42143 2.93913 5 4 5H32C33.0609 5 34.0783 5.42143 34.8284 6.17157C35.5786 6.92172 36 7.93913 36 9V27Z" fill="#009B3A"/>
<path id="vector_2" d="M32.7275 18L17.9995 29.124L3.27148 18L17.9995 6.875L32.7275 18Z" fill="#FEDF01"/>
<path id="vector_3" d="M17.9756 24.3818C21.5422 24.3818 24.4336 21.4905 24.4336 17.9238C24.4336 14.3572 21.5422 11.4658 17.9756 11.4658C14.4089 11.4658 11.5176 14.3572 11.5176 17.9238C11.5176 21.4905 14.4089 24.3818 17.9756 24.3818Z" fill="#002776"/>
<path id="vector_4" d="M12.2775 14.8868C11.9421 15.5189 11.7149 16.2027 11.6055 16.9098C15.6005 16.6198 21.0225 18.8008 23.3495 21.5048C23.7515 20.9008 24.0495 20.2248 24.2325 19.5008C21.3605 16.6928 16.3155 14.8708 12.2775 14.8868Z" fill="#CBE9D4"/>
<path id="vector_5" d="M12 18.2334H13V19.2334H12V18.2334ZM13 20.2334H14V21.2334H13V20.2334Z" fill="#88C9F9"/>
<path id="vector_6" d="M15 18.2334H16V19.2334H15V18.2334ZM17 19.2334H18V20.2334H17V19.2334ZM21 21.2334H22V22.2334H21V21.2334ZM18 22.2334H19V23.2334H18V22.2334ZM21 16.2334H22V17.2334H21V16.2334Z" fill="#55ACEE"/>
<path id="vector_7" d="M19 20.2334H20V21.2334H19V20.2334Z" fill="#3B88C3"/>
</g>
</svg>
