<svg width="42" height="42" viewBox="0 0 42 42" fill="none" xmlns="http://www.w3.org/2000/svg">
<g id="Group">
<path id="Vector" d="M11.8893 20.9996H24.0338M11.8893 12.9033H17.9615M13.9134 37.1922C16.0387 38.9531 18.5991 40.0745 21.532 40.2668C23.8415 40.4186 26.2542 40.4186 28.5616 40.2668C29.3861 40.2097 30.1971 40.0268 30.9662 39.7243C31.7961 39.3863 32.209 39.2183 32.4215 39.2446C32.632 39.2689 32.9377 39.4915 33.5489 39.9368C34.6278 40.7222 35.9859 41.2849 38.0019 41.2383C39.02 41.214 39.5301 41.1999 39.7568 40.8173C39.9855 40.4327 39.7021 39.9024 39.1333 38.8398C38.344 37.3663 37.846 35.6802 38.603 34.3281C39.9045 32.3972 41.0117 30.112 41.1736 27.6426C41.2606 26.3168 41.2606 24.9425 41.1736 23.6147C41.0681 22.0124 40.6788 20.4417 40.0239 18.9755" stroke="black" stroke-width="1.5" stroke-linecap="round" stroke-linejoin="round"/>
<path id="Vector_2" d="M21.6971 32.1059C28.8947 31.6322 34.6268 25.8717 35.0964 18.6397C35.1895 17.2249 35.1895 15.7594 35.0964 14.3446C34.6268 7.11461 28.8947 1.3541 21.6971 0.880463C19.2418 0.718537 16.6773 0.718537 14.2282 0.880463C7.03061 1.3541 1.29843 7.11461 0.828849 14.3446C0.735741 15.7615 0.735741 17.2249 0.828849 18.6397C0.998871 21.275 2.17486 23.712 3.55932 25.7725C4.36288 27.2137 3.83257 29.011 2.99461 30.5838C2.39143 31.7172 2.08985 32.284 2.33274 32.6928C2.57562 33.1017 3.11605 33.1159 4.19893 33.1402C6.33838 33.1928 7.78154 32.5916 8.92717 31.7537C9.5769 31.28 9.90277 31.0432 10.1274 31.0149C10.3501 30.9886 10.7913 31.1667 11.6718 31.527C12.4652 31.8508 13.3842 32.0492 14.2282 32.1059C16.6773 32.2678 19.2418 32.2678 21.6971 32.1059Z" stroke="black" stroke-width="1.5" stroke-linecap="round" stroke-linejoin="round"/>
</g>
</svg>
