<svg width="92" height="92" viewBox="0 0 92 92" fill="none" xmlns="http://www.w3.org/2000/svg">
<path d="M46 15.3333C46 16.35 46.4039 17.325 47.1228 18.0439C47.8416 18.7628 48.8167 19.1667 49.8333 19.1667C50.85 19.1667 51.825 18.7628 52.5439 18.0439C53.2628 17.325 53.6667 16.35 53.6667 15.3333C53.6667 14.3167 53.2628 13.3416 52.5439 12.6228C51.825 11.9039 50.85 11.5 49.8333 11.5C48.8167 11.5 47.8416 11.9039 47.1228 12.6228C46.4039 13.3416 46 14.3167 46 15.3333Z" fill="#FFF5E6"/>
<path d="M46 15.3333C46 16.35 46.4039 17.325 47.1228 18.0439C47.8416 18.7628 48.8167 19.1667 49.8333 19.1667C50.85 19.1667 51.825 18.7628 52.5439 18.0439C53.2628 17.325 53.6667 16.35 53.6667 15.3333C53.6667 14.3167 53.2628 13.3416 52.5439 12.6228C51.825 11.9039 50.85 11.5 49.8333 11.5C48.8167 11.5 47.8416 11.9039 47.1228 12.6228C46.4039 13.3416 46 14.3167 46 15.3333Z" stroke="#FFF5E6" stroke-width="20" stroke-linecap="round" stroke-linejoin="round"/>
<path d="M46 15.3333C46 16.35 46.4039 17.325 47.1228 18.0439C47.8416 18.7628 48.8167 19.1667 49.8333 19.1667C50.85 19.1667 51.825 18.7628 52.5439 18.0439C53.2628 17.325 53.6667 16.35 53.6667 15.3333C53.6667 14.3167 53.2628 13.3416 52.5439 12.6228C51.825 11.9039 50.85 11.5 49.8333 11.5C48.8167 11.5 47.8416 11.9039 47.1228 12.6228C46.4039 13.3416 46 14.3167 46 15.3333Z" stroke="#FFF5E6" stroke-width="20" stroke-linecap="round" stroke-linejoin="round"/>
<path d="M26.834 80.5003L38.334 65.167" stroke="#FFF5E6" stroke-width="20" stroke-linecap="round" stroke-linejoin="round"/>
<path d="M61.3327 80.5003L53.666 65.167L42.166 53.667L45.9993 30.667" stroke="#FFF5E6" stroke-width="20" stroke-linecap="round" stroke-linejoin="round"/>
<path d="M23 46.0003L30.6667 34.5003L46 30.667L57.5 42.167L69 46.0003" stroke="#FFF5E6" stroke-width="20" stroke-linecap="round" stroke-linejoin="round"/>
<ellipse cx="49.5" cy="15" rx="7.5" ry="8" fill="#FFF5E6"/>
</svg>
