<svg width="74" height="74" viewBox="0 0 74 74" fill="none" xmlns="http://www.w3.org/2000/svg">
<path id="Vector" d="M27.7498 0C30.1344 0 32.3555 0.695816 34.2247 1.89335V71.2062C31.8982 72.9574 29.0085 73.9993 25.8781 73.9993C19.4918 73.9986 14.0544 69.6071 12.4585 63.6365C5.39762 62.5139 0 56.4012 0 49.0246V48.0996C0 42.3206 3.31447 37.319 8.14426 34.8822C5.40824 32.2715 3.69997 28.5928 3.69997 24.5123C3.69997 17.3397 8.96683 11.3968 15.8441 10.3411C16.6631 4.49724 21.6801 0 27.7498 0ZM46.2496 0C52.3194 0 57.3362 4.49724 58.1553 10.3411C65.0325 11.3968 70.2994 17.3397 70.2994 24.5123C70.2994 28.5928 68.5911 32.2715 65.855 34.8822C70.6849 37.319 73.9993 42.3206 73.9993 48.0996V49.0246C73.9993 56.4012 68.6018 62.5139 61.5408 63.6365C59.945 69.6071 54.5075 73.9986 48.1214 73.9993C44.9909 73.9993 42.1012 72.9574 39.7746 71.2062V1.89335C41.6439 0.695816 43.865 0 46.2496 0Z" fill="#FFF5E6"/>
</svg>
