<svg width="111" height="111" viewBox="0 0 111 111" fill="none" xmlns="http://www.w3.org/2000/svg">
<g id="iconstack.io - (Mother Heart)">
<path id="Vector" d="M55.4994 9.25C63.1769 9.25 69.3744 15.4475 69.3744 23.125C69.3744 30.8025 63.1769 37 55.4994 37C47.8219 37 41.6244 30.8025 41.6244 23.125C41.6244 15.4475 47.8219 9.25 55.4994 9.25ZM92.4994 83.25L83.2494 58.09C81.6306 53.5113 80.1969 49.5337 73.9994 46.25C67.6631 43.0125 63.0381 41.625 55.4994 41.625C48.0531 41.625 43.4281 43.0125 36.9994 46.25C30.8944 49.5337 29.4606 53.5113 27.7494 58.09L18.4994 83.25C17.4356 88.4762 29.5069 94.535 37.6006 98.0038C43.1969 100.455 49.2094 101.75 55.4994 101.75C61.8819 101.75 67.8481 100.455 73.4906 98.0038C81.5844 94.535 93.6556 88.4762 92.4994 83.25ZM71.3169 80.9375L55.4994 97.125L39.6819 80.9375C38.0169 79.18 36.9994 76.8212 36.9994 74.2312C36.9994 69.005 41.1619 64.75 46.2494 64.75C48.7931 64.75 51.1519 65.8137 52.8169 67.5712L55.4994 70.3L58.1819 67.525C59.8469 65.8138 62.2056 64.75 64.7494 64.75C69.8831 64.75 73.9994 69.005 73.9994 74.2312C73.9994 76.8212 72.9819 79.2262 71.3169 80.9375Z" fill="#FFF5E6" stroke="#FFF5E6"/>
</g>
</svg>
