<svg width="42" height="42" viewBox="0 0 42 42" fill="none" xmlns="http://www.w3.org/2000/svg">
<g id="Group">
<path id="Vector" d="M11.8913 20.9996H24.0357M11.8913 12.9033H17.9635M13.9154 37.1922C16.0406 38.9531 18.6011 40.0745 21.534 40.2668C23.8434 40.4186 26.2561 40.4186 28.5636 40.2668C29.3881 40.2097 30.199 40.0268 30.9682 39.7243C31.7981 39.3863 32.211 39.2183 32.4235 39.2446C32.634 39.2689 32.9396 39.4915 33.5509 39.9368C34.6297 40.7222 35.9879 41.2849 38.0039 41.2383C39.022 41.214 39.532 41.1999 39.7587 40.8173C39.9875 40.4327 39.7041 39.9024 39.1353 38.8398C38.3459 37.3663 37.848 35.6802 38.605 34.3281C39.9065 32.3972 41.0137 30.112 41.1756 27.6426C41.2626 26.3168 41.2626 24.9425 41.1756 23.6147C41.07 22.0124 40.6808 20.4417 40.0259 18.9755" stroke="black" stroke-width="1.5" stroke-linecap="round" stroke-linejoin="round"/>
<path id="Vector_2" d="M21.6971 32.1059C28.8947 31.6322 34.6268 25.8717 35.0964 18.6397C35.1895 17.2249 35.1895 15.7594 35.0964 14.3446C34.6268 7.11461 28.8947 1.3541 21.6971 0.880463C19.2418 0.718537 16.6773 0.718537 14.2282 0.880463C7.03061 1.3541 1.29843 7.11461 0.828849 14.3446C0.735741 15.7615 0.735741 17.2249 0.828849 18.6397C0.998871 21.275 2.17486 23.712 3.55932 25.7725C4.36288 27.2137 3.83257 29.011 2.99461 30.5838C2.39143 31.7172 2.08985 32.284 2.33274 32.6928C2.57562 33.1017 3.11605 33.1159 4.19893 33.1402C6.33838 33.1928 7.78154 32.5916 8.92717 31.7537C9.5769 31.28 9.90277 31.0432 10.1274 31.0149C10.3501 30.9886 10.7913 31.1667 11.6718 31.527C12.4652 31.8508 13.3842 32.0492 14.2282 32.1059C16.6773 32.2678 19.2418 32.2678 21.6971 32.1059Z" stroke="black" stroke-width="1.5" stroke-linecap="round" stroke-linejoin="round"/>
</g>
</svg>
