<svg width="48" height="48" viewBox="0 0 48 48" fill="none" xmlns="http://www.w3.org/2000/svg">
<g id="Group 14">
<path id="Vector" d="M24 45.5C29.7022 45.5 35.1708 43.2348 39.2028 39.2028C43.2348 35.1708 45.5 29.7022 45.5 24C45.5 18.2978 43.2348 12.8292 39.2028 8.7972C35.1708 4.76517 29.7022 2.5 24 2.5C18.2978 2.5 12.8292 4.76517 8.7972 8.7972C4.76517 12.8292 2.5 18.2978 2.5 24C2.5 29.7022 4.76517 35.1708 8.7972 39.2028C12.8292 43.2348 18.2978 45.5 24 45.5Z" stroke="#FFF5E6" stroke-width="5" stroke-linecap="round" stroke-linejoin="round"/>
<path id="Vector_2" d="M16.832 14.4443L31.1654 33.5554" stroke="#FFF5E6" stroke-width="5" stroke-linecap="round" stroke-linejoin="round"/>
<path id="Vector_3" d="M31.1654 14.4443L16.832 33.5554" stroke="#FFF5E6" stroke-width="5" stroke-linecap="round" stroke-linejoin="round"/>
</g>
</svg>
