<svg width="226" height="226" viewBox="0 0 226 226" fill="none" xmlns="http://www.w3.org/2000/svg">
<g id="Group 15">
<path id="Vector" d="M113 224.496C174.577 224.496 224.496 174.577 224.496 113C224.496 51.4215 174.577 1.50277 113 1.50277C51.4215 1.50277 1.50277 51.4215 1.50277 113C1.50277 174.577 51.4215 224.496 113 224.496Z" fill="#F4E1E0" stroke="black" stroke-width="3" stroke-linecap="round" stroke-linejoin="round"/>
<path id="Vector_2" d="M114.343 121.697C113.562 121.585 112.559 121.585 111.667 121.697C92.0435 121.028 76.434 104.972 76.434 85.2369C76.434 65.056 92.7125 48.666 113.005 48.666C133.186 48.666 149.576 65.056 149.576 85.2369C149.464 104.972 133.966 121.028 114.343 121.697Z" fill="#F4E1E0" stroke="black" stroke-width="3" stroke-linecap="round" stroke-linejoin="round"/>
<path id="Vector_3" d="M188.145 195.285C168.299 213.459 141.985 224.497 112.996 224.497C84.0068 224.497 57.6936 213.459 37.8472 195.285C38.9621 184.804 45.6519 174.547 57.5821 166.519C88.1322 146.227 138.083 146.227 168.41 166.519C180.34 174.547 187.03 184.804 188.145 195.285Z" fill="#F4E1E0" stroke="black" stroke-width="3" stroke-linecap="round" stroke-linejoin="round"/>
</g>
</svg>
