<svg width="60" height="58" viewBox="0 0 60 58" fill="none" xmlns="http://www.w3.org/2000/svg">
<path d="M27.2041 2.18654C28.1961 -0.363179 31.8039 -0.363176 32.7959 2.18654L39.1706 18.5722C39.4895 19.3919 40.152 20.0303 40.9829 20.3187L57.8327 26.1658C60.5213 27.0988 60.5213 30.9012 57.8327 31.8342L40.9829 37.6813C40.152 37.9697 39.4895 38.6081 39.1706 39.4278L32.7959 55.8135C31.8039 58.3632 28.1961 58.3632 27.2041 55.8135L20.8294 39.4278C20.5105 38.6081 19.848 37.9697 19.0171 37.6813L2.16734 31.8342C-0.521304 30.9012 -0.521301 27.0988 2.16735 26.1658L19.0171 20.3187C19.848 20.0303 20.5105 19.3919 20.8294 18.5722L27.2041 2.18654Z" fill="#FEF8C8"/>
</svg>
