<svg width="93" height="69" viewBox="0 0 93 69" fill="none" xmlns="http://www.w3.org/2000/svg">
<path d="M93.1645 35.139C92.7648 34.4362 92.2291 33.82 91.5888 33.3266C90.9485 32.8332 90.2164 32.4724 89.4352 32.2653C86.6013 31.5355 83.6728 31.2421 80.7505 31.395C82.3174 23.6129 81.1423 17.4578 79.967 13.8078C79.4877 12.3087 78.4682 11.0417 77.1069 10.2533C75.7457 9.46488 74.1401 9.21148 72.6025 9.54239C68.6163 10.4309 64.826 12.0412 61.4185 14.294C58.923 9.19206 55.2895 4.73217 50.7986 1.25847C49.7103 0.441582 48.3866 0 47.0262 0C45.6658 0 44.3421 0.441582 43.2538 1.25847C38.7558 4.72996 35.1155 9.19003 32.6144 14.294C29.2069 12.0412 25.4166 10.4309 21.4304 9.54239C19.8932 9.20981 18.2873 9.46254 16.9262 10.2512C15.5652 11.04 14.5468 12.308 14.0697 13.8078C12.8945 17.4578 11.7193 23.609 13.2628 31.395C10.3405 31.2421 7.41198 31.5355 4.57803 32.2653C3.79686 32.4724 3.06475 32.8332 2.42445 33.3266C1.78415 33.82 1.24848 34.4362 0.848734 35.139C0.430907 35.8585 0.160309 36.654 0.0527032 37.4792C-0.0549029 38.3044 0.0026335 39.1428 0.221961 39.9455C1.54994 44.8774 5.62788 54.2513 17.9792 61.6374C30.3306 69.0235 41.1816 69 47.0262 69C52.8709 69 63.7415 69 76.0145 61.6374C88.3658 54.2513 92.4437 44.8774 93.7717 39.9455C93.994 39.1441 94.0547 38.3064 93.9505 37.4812C93.8463 36.6561 93.5791 35.8599 93.1645 35.139ZM21.1914 56.2546C10.7596 50.0132 7.37109 42.3605 6.2664 38.3028C9.14855 37.5906 12.14 37.4349 15.0804 37.8441C16.0621 40.4758 17.261 43.0212 18.6648 45.4538C22.1114 51.4008 26.627 56.6589 31.9837 60.9631C28.1958 59.8732 24.5674 58.2901 21.1914 56.2546ZM47.0066 62.1C43.3518 59.3792 34.4712 51.0326 34.4712 34.1746C34.4712 17.5244 43.2382 9.11114 47.0066 6.27273C50.7751 9.11898 59.5421 17.5323 59.5421 34.1824C59.5421 51.0326 50.6615 59.3792 47.0066 62.1ZM87.7469 38.3107C86.6618 42.3252 83.2811 49.9976 72.8258 56.2546C69.4496 58.2888 65.8212 59.8705 62.0335 60.9592C67.3902 56.655 71.9057 51.3969 75.3524 45.4498C76.7562 43.0173 77.9551 40.4719 78.9368 37.8402C81.8764 37.4348 84.8664 37.5932 87.7469 38.3068V38.3107Z" fill="#FFF5E6"/>
</svg>
