<svg width="443" height="450" viewBox="0 0 443 450" fill="none" xmlns="http://www.w3.org/2000/svg">
<ellipse cx="221.5" cy="225" rx="221.5" ry="225" fill="#F6D4E7"/>
<path d="M159.507 167.73L221.294 308.718L288.68 170.406C288.68 170.406 292.062 102.531 222.563 102.53C167.064 102.529 159.507 167.73 159.507 167.73Z" fill="#FB79B8"/>
<path d="M159.879 168.461L222.236 308.437L85.8556 222.081C85.8556 222.081 58.6737 174.164 84.0157 154.643C109.358 135.123 159.879 168.461 159.879 168.461Z" fill="#FB69B0"/>
<path d="M86.7915 222.262L222.213 307.742L67.8995 308.004C67.8995 308.004 21.6907 284.229 30.1275 254.642C38.5644 225.055 86.7915 222.262 86.7915 222.262Z" fill="#EA519B"/>
<path d="M287.514 170.667L219.959 308.21L359.478 227.021C359.478 227.021 388.435 180.155 363.842 159.699C339.248 139.243 287.514 170.667 287.514 170.667Z" fill="#F6D4E7"/>
<path d="M358.54 227.166L220.013 307.515L374.208 313.555C374.208 313.555 421.275 291.527 413.952 261.645C406.629 231.763 358.54 227.166 358.54 227.166Z" fill="#F6D4E7"/>
<path d="M287.514 170.667L219.959 308.21L359.478 227.021C359.478 227.021 388.435 180.155 363.842 159.699C339.248 139.243 287.514 170.667 287.514 170.667Z" fill="#FB69B0"/>
<path d="M358.54 227.166L220.013 307.515L374.208 313.555C374.208 313.555 421.275 291.527 413.952 261.645C406.629 231.763 358.54 227.166 358.54 227.166Z" fill="#EA519B"/>
<path d="M221 307C227 374 208 394.333 201 395" stroke="#4F8E50" stroke-width="9"/>
<path d="M376.204 39.1865C377.196 36.6368 380.804 36.6368 381.796 39.1865L388.171 55.5722C388.489 56.3919 389.152 57.0303 389.983 57.3187L406.833 63.1658C409.521 64.0988 409.521 67.9012 406.833 68.8342L389.983 74.6813C389.152 74.9697 388.489 75.6081 388.171 76.4278L381.796 92.8135C380.804 95.3632 377.196 95.3632 376.204 92.8135L369.829 76.4278C369.511 75.6081 368.848 74.9697 368.017 74.6813L351.167 68.8342C348.479 67.9012 348.479 64.0988 351.167 63.1658L368.017 57.3187C368.848 57.0303 369.511 56.3919 369.829 55.5722L376.204 39.1865Z" fill="#FEF8C8"/>
<path d="M55.2041 358.187C56.1961 355.637 59.8039 355.637 60.7959 358.187L67.1706 374.572C67.4895 375.392 68.152 376.03 68.9829 376.319L85.8327 382.166C88.5213 383.099 88.5213 386.901 85.8327 387.834L68.9829 393.681C68.152 393.97 67.4895 394.608 67.1706 395.428L60.7959 411.813C59.8039 414.363 56.1961 414.363 55.2041 411.813L48.8294 395.428C48.5105 394.608 47.848 393.97 47.0171 393.681L30.1673 387.834C27.4787 386.901 27.4787 383.099 30.1673 382.166L47.0171 376.319C47.848 376.03 48.5105 375.392 48.8294 374.572L55.2041 358.187Z" fill="#FEF8C8"/>
</svg>
