<svg width="110" height="83" viewBox="0 0 110 83" fill="none" xmlns="http://www.w3.org/2000/svg">
<path id="Vector" d="M48.125 82.5C48.125 82.5 41.25 82.5 41.25 75.625C41.25 68.75 48.125 48.125 75.625 48.125C103.125 48.125 110 68.75 110 75.625C110 82.5 103.125 82.5 103.125 82.5H48.125ZM75.625 41.25C81.0951 41.25 86.3411 39.077 90.2091 35.2091C94.077 31.3411 96.25 26.0951 96.25 20.625C96.25 15.1549 94.077 9.90886 90.2091 6.04092C86.3411 2.17299 81.0951 0 75.625 0C70.1549 0 64.9089 2.17299 61.0409 6.04092C57.173 9.90886 55 15.1549 55 20.625C55 26.0951 57.173 31.3411 61.0409 35.2091C64.9089 39.077 70.1549 41.25 75.625 41.25ZM35.86 82.5C34.8413 80.3536 34.333 78.0005 34.375 75.625C34.375 66.3094 39.05 56.7188 47.685 50.05C43.3756 48.7193 38.8848 48.0698 34.375 48.125C6.875 48.125 0 68.75 0 75.625C0 82.5 6.875 82.5 6.875 82.5H35.86ZM30.9375 41.25C35.4959 41.25 39.8676 39.4392 43.0909 36.2159C46.3142 32.9926 48.125 28.6209 48.125 24.0625C48.125 19.5041 46.3142 15.1324 43.0909 11.9091C39.8676 8.68582 35.4959 6.875 30.9375 6.875C26.3791 6.875 22.0074 8.68582 18.7841 11.9091C15.5608 15.1324 13.75 19.5041 13.75 24.0625C13.75 28.6209 15.5608 32.9926 18.7841 36.2159C22.0074 39.4392 26.3791 41.25 30.9375 41.25Z" fill="#FFF5E6"/>
</svg>
