<svg width="115" height="151" viewBox="0 0 115 151" fill="none" xmlns="http://www.w3.org/2000/svg">
<path id="Vector" d="M44.2123 98.9994C44.1908 98.9477 44.1699 98.8966 44.1484 98.8449C43.173 98.5775 42.2085 98.2813 41.2572 97.9579C41.2344 97.95 41.2115 97.9421 41.1887 97.9342C37.7953 96.7741 34.5653 95.2611 31.5425 93.4397C16.9315 84.6355 7.15962 68.6162 7.15962 50.3141C7.15962 22.5264 29.686 0 57.4737 0C83.4429 0 104.817 19.6749 107.503 44.9318C107.818 47.8923 105.374 50.3141 102.397 50.3141C99.4198 50.3141 97.045 47.8871 96.6439 44.9371C94.0204 25.6474 77.4829 10.7816 57.4737 10.7816C35.6405 10.7816 17.9412 28.4809 17.9412 50.3141C17.9412 67.5395 28.9581 82.1916 44.3302 87.609C46.567 82.5754 51.6099 79.065 57.4737 79.065C65.4125 79.065 71.8491 85.5009 71.8491 93.4397C71.8491 101.379 65.4133 107.816 57.4737 107.816C51.505 107.816 46.3859 104.178 44.2123 98.9994ZM36.8422 107.835C28.2853 104.765 20.6109 99.8411 14.305 93.5454C6.25339 94.4675 0 101.306 0 109.604V116.217C0 120.328 1.28229 124.338 3.66833 127.687C14.7529 143.243 32.8874 150.95 57.4766 150.95C82.06 150.95 100.204 143.247 111.315 127.698C113.712 124.345 115 120.327 115 116.206V109.604C115 100.677 107.763 93.4397 98.8354 93.4397H82.6307C82.6307 107.334 71.3676 118.597 57.4737 118.597C48.9217 118.597 41.383 114.332 36.8422 107.835ZM86.2246 50.3141C86.2246 41.4648 82.2268 33.5493 75.9382 28.2753C70.942 24.0862 64.5004 21.5632 57.4737 21.5632C41.595 21.5632 28.7228 34.4354 28.7228 50.3141C28.7228 54.6925 29.7023 58.8455 31.4554 62.5638C33.6655 67.2498 37.1043 71.2426 41.3561 74.1256C45.7167 70.4821 51.3339 68.2834 57.4737 68.2834C63.607 68.2834 69.2271 70.4778 73.5929 74.1248C81.2155 68.9547 86.2246 60.2192 86.2246 50.3141Z" fill="#FFF5E6"/>
</svg>
