<svg width="66" height="92" viewBox="0 0 66 92" fill="none" xmlns="http://www.w3.org/2000/svg">
<path d="M20.0252 8.26137C19.5768 6.59942 19.8008 4.82861 20.6493 3.32937C21.4977 1.83013 22.9029 0.722068 24.5629 0.243233C28.1146 -0.76725 31.8438 1.47553 32.8132 5.02865L39.4134 29.5842C39.4743 29.8053 39.4881 30.0366 39.4538 30.2633C39.4195 30.49 39.338 30.707 39.2144 30.9005C39.0909 31.0939 38.928 31.2595 38.7364 31.3865C38.5447 31.5135 38.3285 31.5992 38.1016 31.638C36.2755 31.9493 34.5364 32.6422 32.9988 33.6713C32.7678 33.8233 32.545 33.9835 32.3223 34.1519C32.1862 33.9137 32.0459 33.6754 31.9098 33.4454C30.4998 31.3121 28.4916 29.6381 26.1346 28.6312C25.9079 28.5338 25.7066 28.3863 25.5458 28.1998C25.3849 28.0133 25.2689 27.7928 25.2064 27.555L20.0252 8.26137ZM13.3631 65.978C13.8016 66.0676 14.2479 66.113 14.6955 66.1136C16.3313 66.1121 17.9082 65.506 19.1206 64.4126C20.3329 63.3191 21.0944 61.8164 21.2572 60.1957C21.4201 58.575 20.9728 56.9518 20.002 55.6409C19.0313 54.3299 17.6062 53.4246 16.0032 53.1005L7.92203 51.4575C6.21431 51.1263 4.44434 51.4799 2.9971 52.4415C1.54986 53.403 0.542412 54.8946 0.193891 56.5919C-0.15463 58.2893 0.183963 60.055 1.13602 61.505C2.08808 62.955 3.5766 63.9721 5.27781 64.335L13.3631 65.978ZM5.27781 44.2074L19.5673 47.1116C20.4219 47.2982 21.3051 47.3139 22.1658 47.1576C23.0264 47.0013 23.8473 46.6762 24.5806 46.2012C25.314 45.7261 25.9452 45.1107 26.4375 44.3906C26.9298 43.6705 27.2735 42.8601 27.4485 42.0066C27.6235 41.153 27.6263 40.2734 27.4568 39.4187C27.2873 38.5641 26.9489 37.7515 26.4612 37.0283C25.9735 36.3051 25.3463 35.6856 24.6161 35.2059C23.8858 34.7262 23.0671 34.3959 22.2074 34.2341L7.92203 31.3423C6.20711 30.9932 4.42316 31.3367 2.96259 32.2973C1.50202 33.2579 0.484469 34.7569 0.133754 36.4645C-0.216812 38.1722 0.128191 39.9486 1.09288 41.4029C2.05756 42.8573 3.56292 43.8705 5.27781 44.2198V44.2074ZM47.3543 32.6403L57.0691 34.6161C57.4788 34.6986 57.9047 34.6232 58.2607 34.4052C58.6167 34.1871 58.8764 33.8426 58.9872 33.4413L65.7607 8.26137C66.2065 6.58004 65.9649 4.79133 65.0889 3.28701C64.2128 1.78269 62.7738 0.685387 61.0869 0.235435C59.4001 -0.214518 57.6029 0.0195581 56.089 0.886395C54.5751 1.75323 53.4679 3.18217 53.0099 4.86024L46.0797 30.6152C46.0212 30.8329 46.0083 31.0602 46.0418 31.2831C46.0753 31.5059 46.1545 31.7196 46.2744 31.9106C46.3944 32.1017 46.5525 32.2662 46.739 32.3938C46.9255 32.5215 47.1363 32.6096 47.3585 32.6526L47.3543 32.6403ZM62.7576 45.678C62.0513 44.5217 61.1124 43.5234 60 42.7458C58.8876 41.9682 57.6257 41.4281 56.2935 41.1596L41.608 38.1897C40.4788 37.96 39.3088 38.0287 38.2145 38.389C37.1203 38.7494 36.1398 39.3888 35.3708 40.2436C34.9625 40.6778 34.6243 41.1725 34.3684 41.71C33.8118 42.8217 33.583 44.0678 33.7086 45.3037C33.8342 46.5396 34.309 47.7148 35.0779 48.693C36.0901 49.9596 37.5241 50.8236 39.1205 51.1288L45.4073 52.4063C46.2611 52.5792 47.0126 53.079 47.5002 53.798C47.9877 54.517 48.1724 55.3979 48.0144 56.2511C47.4595 58.9054 47.8643 61.6695 49.157 64.0556C49.554 64.7469 49.6919 65.556 49.5461 66.339C49.4003 67.122 48.9804 67.8281 48.3609 68.3317C47.9847 68.6254 47.5489 68.8342 47.0837 68.9437C46.6185 69.0531 46.135 69.0607 45.6666 68.9658C45.1981 68.8708 44.756 68.6757 44.3708 68.3939C43.9856 68.1121 43.6664 67.7503 43.4354 67.3335C41.8958 64.5587 41.1162 61.4294 41.1749 58.2597L37.6479 57.4957C35.9505 57.1553 34.3377 56.4835 32.9025 55.519C31.4673 54.5545 30.2382 53.3165 29.2862 51.8764C29.1294 51.6423 28.985 51.4041 28.8489 51.1617C27.9762 51.8241 27.0243 52.3761 26.0149 52.8048C27.2122 54.799 27.8573 57.0735 27.8844 59.3968C27.9115 61.72 27.3197 64.0089 26.1693 66.0303C25.0189 68.0517 23.351 69.7333 21.3354 70.9039C19.3199 72.0744 17.0288 72.6921 14.6955 72.694C13.8046 72.6935 12.916 72.6041 12.0431 72.427L3.96189 70.784H3.93714C3.74302 70.7382 3.53993 70.7469 3.35054 70.8094C3.16114 70.8718 2.99288 70.9853 2.86454 71.1374C2.73619 71.2895 2.65281 71.4741 2.62368 71.6706C2.59456 71.8672 2.62084 72.0679 2.6996 72.2504C5.27503 78.119 9.51275 83.1128 14.8941 86.6204C20.2755 90.1281 26.567 91.9976 32.9988 92H33.2504C51.3062 91.8644 66 76.9578 66 58.7691V57.3971C65.9988 53.2757 64.88 49.2311 62.7618 45.6903L62.7576 45.678Z" fill="#FFF5E6"/>
</svg>
