<svg width="327" height="240" viewBox="0 0 327 240" fill="none" xmlns="http://www.w3.org/2000/svg">
<path id="Vector" d="M324.094 122.223C322.703 119.778 320.84 117.635 318.612 115.919C316.385 114.203 313.838 112.948 311.12 112.227C301.262 109.689 291.074 108.668 280.909 109.2C286.36 82.1318 282.271 60.7227 278.183 48.0273C276.516 42.813 272.969 38.4059 268.234 35.6636C263.498 32.9213 257.913 32.0399 252.564 33.1909C238.697 36.2813 225.512 41.8825 213.658 49.7182C204.977 31.9724 192.337 16.4597 176.714 4.37727C172.928 1.53594 168.324 0 163.591 0C158.859 0 154.254 1.53594 150.468 4.37727C134.821 16.452 122.157 31.9653 113.456 49.7182C101.603 41.8825 88.4172 36.2813 74.5504 33.1909C69.2028 32.0341 63.6164 32.9132 58.8817 35.6565C54.1471 38.3998 50.6042 42.8105 48.9447 48.0273C44.8565 60.7227 40.7683 82.1182 46.1374 109.2C35.9717 108.668 25.7842 109.689 15.9257 112.227C13.2082 112.948 10.6614 114.203 8.43399 115.919C6.20655 117.635 4.34312 119.778 2.95251 122.223C1.49901 124.725 0.557672 127.492 0.18334 130.363C-0.190992 133.233 0.00916121 136.149 0.772142 138.941C5.3918 156.095 19.5778 188.7 62.5447 214.391C105.512 240.082 143.259 240 163.591 240C183.923 240 221.739 240 264.433 214.391C307.4 188.7 321.586 156.095 326.206 138.941C326.979 136.153 327.19 133.24 326.828 130.37C326.465 127.499 325.536 124.73 324.094 122.223ZM73.7191 195.668C37.4296 173.959 25.642 147.341 21.7991 133.227C31.8253 130.75 42.2316 130.208 52.4605 131.632C55.8755 140.786 60.0462 149.639 64.9295 158.1C76.9196 178.785 92.6278 197.074 111.262 212.045C98.0855 208.254 85.4631 202.748 73.7191 195.668ZM163.523 216C150.809 206.536 119.916 177.505 119.916 118.868C119.916 60.9545 150.414 31.6909 163.523 21.8182C176.633 31.7182 207.13 60.9818 207.13 118.895C207.13 177.505 176.237 206.536 163.523 216ZM305.247 133.255C301.472 147.218 289.712 173.905 253.341 195.668C241.596 202.744 228.974 208.245 215.797 212.032C234.432 197.061 250.14 178.772 262.13 158.086C267.014 149.625 271.184 140.772 274.599 131.618C284.826 130.208 295.227 130.759 305.247 133.241V133.255Z" fill="#FFF5E6"/>
</svg>
