<svg width="55" height="54" viewBox="0 0 55 54" fill="none" xmlns="http://www.w3.org/2000/svg">
<g id="Component 33">
<path id="Ellipse 34" d="M27.5 1C42.1529 1 54 12.6578 54 27C54 41.3422 42.1529 53 27.5 53C12.8471 53 1 41.3422 1 27C1 12.6578 12.8471 1 27.5 1Z" stroke="black" stroke-width="2"/>
<path id="Vector 12" d="M19 21.5C19 18.4999 22 14 26 14C30 14 33.2482 15.7677 34.5 19.4999C35.6328 22.8774 34.1627 27.3373 32.5 29C30.7528 30.7472 29.1302 31.6222 27.9432 32.0604C26.907 32.4429 26 33.3954 26 34.5V37" stroke="black" stroke-width="2" stroke-linecap="round"/>
<circle id="Ellipse 35" cx="26" cy="40" r="1" fill="black"/>
</g>
</svg>
