<svg width="172" height="172" viewBox="0 0 172 172" fill="none" xmlns="http://www.w3.org/2000/svg">
<path d="M86 35.8335V157.667M86 157.667H64.5M86 157.667H107.5" stroke="#FFF5E6" stroke-width="7" stroke-linecap="round" stroke-linejoin="round"/>
<path d="M150.5 93.1668L132.583 57.3335L114.667 93.1668" stroke="#FFF5E6" stroke-width="7" stroke-linecap="round" stroke-linejoin="round"/>
<path d="M57.3333 93.1668L39.4167 57.3335L21.5 93.1668" stroke="#FFF5E6" stroke-width="7" stroke-linecap="round" stroke-linejoin="round"/>
<path d="M28.6667 57.3335H36.1788C45.2336 57.3335 54.0188 53.5423 61.0895 46.5835C75.6529 32.2502 96.3473 32.2502 110.911 46.5835C117.981 53.5423 126.766 57.3335 135.821 57.3335H143.333" stroke="#FFF5E6" stroke-width="7" stroke-linecap="round" stroke-linejoin="round"/>
<path d="M132.583 121.833C142.292 121.833 150.747 115.858 155.139 107.033C157.509 102.27 158.694 99.8881 156.531 96.5277C154.367 93.1665 150.787 93.1665 143.625 93.1665H121.542C114.38 93.1665 110.8 93.1665 108.636 96.5277C106.472 99.8881 107.658 102.27 110.028 107.033C114.42 115.858 122.875 121.833 132.583 121.833Z" fill="#FFF5E6" stroke="#FFF5E6" stroke-width="7"/>
<path d="M39.4166 121.833C49.1254 121.833 57.5799 115.858 61.972 107.033C64.3424 102.27 65.5276 99.8881 63.3641 96.5277C61.2005 93.1665 57.6199 93.1665 50.4586 93.1665H28.3746C21.2133 93.1665 17.6327 93.1665 15.4691 96.5277C13.3056 99.8881 14.4908 102.27 16.8612 107.033C21.2533 115.858 29.7078 121.833 39.4166 121.833Z" fill="#FFF5E6" stroke="#FFF5E6" stroke-width="7"/>
<path d="M96.75 25.0835C96.75 31.0206 91.9369 35.8335 86 35.8335C80.0631 35.8335 75.25 31.0206 75.25 25.0835C75.25 19.1464 80.0631 14.3335 86 14.3335C91.9369 14.3335 96.75 19.1464 96.75 25.0835Z" stroke="#FFF5E6" stroke-width="7"/>
</svg>
