<svg width="56" height="56" viewBox="0 0 56 56" fill="none" xmlns="http://www.w3.org/2000/svg">
<g id="perfil_nav">
<path id="vector" d="M27.9999 27.9998C32.4734 27.9998 36.0999 24.3733 36.0999 19.8998C36.0999 15.4263 32.4734 11.7998 27.9999 11.7998C23.5264 11.7998 19.8999 15.4263 19.8999 19.8998C19.8999 24.3733 23.5264 27.9998 27.9999 27.9998Z" stroke="black" stroke-width="2"/>
<path id="vector_2" d="M44.1198 49.6001C43.6878 41.7917 41.2983 36.1001 28.0008 36.1001C14.7033 36.1001 12.3138 41.7917 11.8818 49.6001" stroke="black" stroke-width="2" stroke-linecap="round"/>
<path id="vector_3" d="M14.5 4.61263C18.6025 2.23859 23.2601 0.99222 28 1.00004C42.9121 1.00004 55 13.0879 55 28C55 42.9121 42.9121 55 28 55C13.0879 55 1 42.9121 1 28C1 23.0833 2.3149 18.469 4.6126 14.5" stroke="black" stroke-width="2" stroke-linecap="round"/>
</g>
</svg>
