<svg width="94" height="104" viewBox="0 0 94 104" fill="none" xmlns="http://www.w3.org/2000/svg">
<path id="Vector" d="M92.5 47.8757V33.2155C92.5 24.9335 92.5 20.7924 90.457 18.0907C88.4141 15.389 83.7948 14.0773 74.5563 11.4541C68.2445 9.66181 62.6803 7.50258 58.235 5.53136C52.1739 2.8438 49.1436 1.5 47 1.5C44.8564 1.5 41.8261 2.8438 35.7651 5.53136C31.3196 7.50258 25.7557 9.66176 19.4438 11.4541C10.2053 14.0773 5.586 15.389 3.543 18.0907C1.5 20.7924 1.5 24.9335 1.5 33.2155V47.8757C1.5 76.2829 27.0951 93.3267 39.8919 100.073C42.9611 101.691 44.4955 102.5 47 102.5C49.5045 102.5 51.0389 101.691 54.1081 100.073C66.9047 93.3267 92.5 76.2829 92.5 47.8757Z" fill="#FFF5E6" stroke="#FFF5E6" stroke-width="3" stroke-linecap="round"/>
</svg>
