<svg width="97" height="97" viewBox="0 0 97 97" fill="none" xmlns="http://www.w3.org/2000/svg">
<g id="iconstack.io - (Food Fork Drink)">
<path id="Vector" d="M12.1257 12.1252C11.0537 12.1252 10.0257 12.551 9.26776 13.3089C8.5098 14.0669 8.08398 15.0949 8.08398 16.1668V32.3335V38.396C8.08398 45.2264 12.2469 51.0464 18.1882 53.431V78.8127C18.1882 80.4205 18.8269 81.9625 19.9638 83.0995C21.1008 84.2364 22.6428 84.8752 24.2507 84.8752C25.8585 84.8752 27.4005 84.2364 28.5375 83.0995C29.6744 81.9625 30.3132 80.4205 30.3132 78.8127V53.431C36.2544 51.0464 40.4173 45.2264 40.4173 38.396V32.3335V16.1668C40.4173 15.0949 39.9915 14.0669 39.2335 13.3089C38.4756 12.551 37.4476 12.1252 36.3757 12.1252C35.3037 12.1252 34.2757 12.551 33.5178 13.3089C32.7598 14.0669 32.334 15.0949 32.334 16.1668V32.3335C32.334 32.8695 32.1211 33.3835 31.7421 33.7624C31.3631 34.1414 30.8491 34.3543 30.3132 34.3543C29.7772 34.3543 29.2632 34.1414 28.8842 33.7624C28.5052 33.3835 28.2923 32.8695 28.2923 32.3335V16.1668C28.2923 15.0949 27.8665 14.0669 27.1085 13.3089C26.3506 12.551 25.3226 12.1252 24.2507 12.1252C23.1787 12.1252 22.1507 12.551 21.3928 13.3089C20.6348 14.0669 20.209 15.0949 20.209 16.1668V32.3335C20.209 32.8695 19.9961 33.3835 19.6171 33.7624C19.2381 34.1414 18.7241 34.3543 18.1882 34.3543C17.6522 34.3543 17.1382 34.1414 16.7592 33.7624C16.3802 33.3835 16.1673 32.8695 16.1673 32.3335V16.1668C16.1673 15.0949 15.7415 14.0669 14.9835 13.3089C14.2256 12.551 13.1976 12.1252 12.1257 12.1252ZM80.349 12.1252C79.8236 12.1252 79.2981 12.4889 78.8131 12.7718L64.6673 21.2189V36.3752H48.5006V44.4585H52.5423L56.584 84.8752H80.834L84.8756 44.4585H88.9173V36.3752H72.7506V25.6243L82.8548 19.5618C84.8756 18.4302 85.4011 16.1668 84.229 14.146C83.3802 12.691 81.8848 11.9231 80.349 12.1252Z" fill="#FFF5E6" stroke="#FFF5E6"/>
</g>
</svg>
