<svg width="74" height="74" viewBox="0 0 74 74" fill="none" xmlns="http://www.w3.org/2000/svg">
<path d="M27.5 0C29.8632 0 32.0643 0.689553 33.9167 1.87631V70.5654C31.6111 72.3008 28.7474 73.3333 25.6452 73.3333C19.3163 73.3326 13.9279 68.9806 12.3464 63.0637C5.34904 61.9513 0 55.8936 0 48.5833V47.6667C0 41.9397 3.28464 36.9831 8.07096 34.5682C5.35957 31.981 3.66667 28.3354 3.66667 24.2917C3.66667 17.1836 8.88613 11.2942 15.7015 10.248C16.5131 4.45676 21.485 0 27.5 0ZM45.8333 0C51.8485 0 56.8201 4.45676 57.6319 10.248C64.4472 11.2942 69.6667 17.1836 69.6667 24.2917C69.6667 28.3354 67.9738 31.981 65.2623 34.5682C70.0487 36.9831 73.3333 41.9397 73.3333 47.6667V48.5833C73.3333 55.8936 67.9844 61.9513 60.9869 63.0637C59.4055 68.9806 54.017 73.3326 47.6883 73.3333C44.5859 73.3333 41.7223 72.3008 39.4167 70.5654V1.87631C41.2691 0.689553 43.4702 0 45.8333 0Z" fill="#FFF5E6"/>
</svg>
