<svg width="69" height="72" viewBox="0 0 69 72" fill="none" xmlns="http://www.w3.org/2000/svg">
<path d="M57.7497 41.2516H31.3841L39.0875 33.5482C41.8726 34.9508 44.9413 35.6985 48.0594 35.7344C51.1979 35.7427 54.2778 34.8838 56.9591 33.2525C65.1128 28.3163 69.4819 16.89 68.6466 2.6863C68.6073 2.01353 68.3223 1.37861 67.8458 0.902077C67.3693 0.425547 66.7343 0.140587 66.0616 0.101298C51.8578 -0.734015 40.4316 3.63505 35.4919 11.7888C32.2778 17.0997 32.1953 23.5141 35.1963 29.6638L30.2497 34.6104L26.0525 30.4132C28.115 25.8585 27.9672 21.1319 25.5747 17.1857C21.8381 11.0016 13.2719 7.70505 2.65688 8.32724C1.98527 8.36725 1.35164 8.65209 0.8759 9.12782C0.400162 9.60356 0.11533 10.2372 0.0753129 10.9088C-0.550312 21.5204 2.74969 30.0866 8.93719 33.8266C11.0072 35.0906 13.3868 35.7568 15.8122 35.7516C18.0126 35.7298 20.183 35.2387 22.1784 34.3113L26.3619 38.5016L23.6119 41.2516H8.24969C7.52034 41.2516 6.82087 41.5413 6.30514 42.0571C5.78942 42.5728 5.49969 43.2723 5.49969 44.0016C5.49969 44.731 5.78942 45.4304 6.30514 45.9462C6.82087 46.4619 7.52034 46.7516 8.24969 46.7516H11.5463L16.0872 67.1944C16.3522 68.4194 17.0304 69.516 18.008 70.3002C18.9857 71.0845 20.2033 71.5086 21.4566 71.5016H44.5462C45.7992 71.5074 47.0162 71.0827 47.9935 70.2987C48.9709 69.5147 49.6495 68.4188 49.9156 67.1944L54.4566 46.7516H57.7497C58.479 46.7516 59.1785 46.4619 59.6942 45.9462C60.21 45.4304 60.4997 44.731 60.4997 44.0016C60.4997 43.2723 60.21 42.5728 59.6942 42.0571C59.1785 41.5413 58.479 41.2516 57.7497 41.2516Z" fill="#FFF5E6"/>
</svg>
