<svg width="401" height="327" viewBox="0 0 401 327" fill="none" xmlns="http://www.w3.org/2000/svg">
<g id="NOva logo d&#195;&#161;lia">
<path id="Polygon 7" d="M137.6 94.7932L199.428 235.877L266.86 97.4713C266.86 97.4713 270.245 29.5509 200.699 29.5499C145.162 29.5492 137.6 94.7932 137.6 94.7932Z" fill="#FB79B8"/>
<path id="Polygon 5" d="M137.976 95.5257L200.375 235.596L63.9024 149.181C63.9024 149.181 36.7023 101.232 62.0613 81.698C87.4203 62.1643 137.976 95.5257 137.976 95.5257Z" fill="#FB69B0"/>
<path id="Polygon 3" d="M64.8351 149.362L200.347 234.899L45.9304 235.162C45.9304 235.162 -0.309558 211.371 8.13299 181.764C16.5755 152.157 64.8351 149.362 64.8351 149.362Z" fill="#EA519B"/>
<path id="Polygon 5_2" d="M265.691 97.7327L198.09 235.368L337.703 154.124C337.703 154.124 366.68 107.227 342.07 86.7573C317.46 66.2878 265.691 97.7327 265.691 97.7327Z" fill="#F6D4E7"/>
<path id="Polygon 3_2" d="M336.763 154.27L198.142 234.673L352.441 240.717C352.441 240.717 399.54 218.674 392.212 188.772C384.884 158.87 336.763 154.27 336.763 154.27Z" fill="#F6D4E7"/>
<path id="Polygon 5_3" d="M265.691 97.7327L198.09 235.368L337.703 154.124C337.703 154.124 366.68 107.227 342.07 86.7573C317.46 66.2878 265.691 97.7327 265.691 97.7327Z" fill="#FB69B0"/>
<path id="Polygon 3_3" d="M336.763 154.27L198.142 234.673L352.441 240.717C352.441 240.717 399.54 218.674 392.212 188.772C384.884 158.87 336.763 154.27 336.763 154.27Z" fill="#EA519B"/>
<path id="Vector 55" d="M199.134 234.157C205.138 301.202 186.125 321.549 179.12 322.217" stroke="#4F8E50" stroke-width="9"/>
</g>
</svg>
