<svg width="29" height="29" viewBox="0 0 29 29" fill="none" xmlns="http://www.w3.org/2000/svg">
<g id="ph:eye-closed-bold">
<path id="Vector" d="M26.5561 18.3515C26.6454 18.5065 26.7032 18.6776 26.7264 18.855C26.7495 19.0324 26.7375 19.2126 26.691 19.3853C26.6445 19.558 26.5645 19.7199 26.4554 19.8617C26.3464 20.0034 26.2104 20.1224 26.0554 20.2116C25.9004 20.3009 25.7293 20.3587 25.552 20.3819C25.3746 20.405 25.1944 20.393 25.0217 20.3465C24.849 20.3 24.6871 20.2199 24.5453 20.1109C24.4035 20.0018 24.2846 19.8659 24.1954 19.7109L22.2854 16.3691C21.2197 17.0395 20.0707 17.5674 18.8677 17.9392L19.467 21.5234C19.5259 21.879 19.4413 22.2434 19.2316 22.5365C19.0219 22.8297 18.7044 23.0276 18.3489 23.0867C18.2741 23.1 18.1983 23.1065 18.1223 23.106C17.8013 23.1056 17.4908 22.9917 17.2457 22.7844C17.0007 22.577 16.8369 22.2897 16.7834 21.9731L16.2 18.4841C15.0683 18.6094 13.9263 18.6094 12.7947 18.4841L12.217 21.9765C12.1634 22.2934 11.9993 22.5811 11.7538 22.7885C11.5082 22.9959 11.1971 23.1096 10.8757 23.1093C10.7998 23.1098 10.724 23.1034 10.6492 23.0901C10.4731 23.0604 10.3046 22.9964 10.1533 22.9016C10.002 22.8068 9.87081 22.6832 9.7673 22.5377C9.66378 22.3922 9.58995 22.2277 9.55 22.0537C9.51006 21.8797 9.50479 21.6995 9.5345 21.5234L10.1338 17.9301C8.93082 17.5583 7.7818 17.0305 6.71606 16.3601L4.80614 19.7109C4.71688 19.8659 4.59797 20.0018 4.45618 20.1109C4.3144 20.2199 4.15252 20.3 3.9798 20.3465C3.80707 20.393 3.62688 20.405 3.44951 20.3819C3.27215 20.3587 3.10107 20.3009 2.94606 20.2116C2.79105 20.1224 2.65514 20.0034 2.54608 19.8617C2.43703 19.7199 2.35697 19.558 2.31047 19.3853C2.26398 19.2126 2.25196 19.0324 2.2751 18.855C2.29825 18.6776 2.3561 18.5065 2.44536 18.3515L4.532 14.7095C3.82486 14.0708 3.16919 13.3772 2.5711 12.6354C2.35999 12.3538 2.2663 12.0013 2.30974 11.6521C2.35318 11.3029 2.53035 10.9841 2.80401 10.7628C3.07766 10.5416 3.42646 10.4351 3.77704 10.4657C4.12762 10.4963 4.45266 10.6617 4.68379 10.9271C6.50083 13.1768 9.6795 15.8593 14.5007 15.8593C19.322 15.8593 22.5007 13.1768 24.3177 10.9271C24.5451 10.6493 24.8731 10.4727 25.2302 10.4359C25.5873 10.3991 25.9445 10.5051 26.2237 10.7306C26.503 10.9562 26.6817 11.2831 26.7209 11.6399C26.76 11.9968 26.6564 12.3546 26.4327 12.6354C25.8338 13.3773 25.1774 14.0709 24.4695 14.7095L26.5561 18.3515Z" fill="black"/>
</g>
</svg>
