<svg width="35" height="35" viewBox="0 0 35 35" fill="none" xmlns="http://www.w3.org/2000/svg">
<g id="gg:facebook" clip-path="url(#clip0_39_1078)">
<path id="Vector" d="M17.8543 14.9986V20.9967H27.9844C27.5715 23.5714 24.9212 28.5447 17.8543 28.5447C11.7637 28.5447 6.78798 23.5998 6.78798 17.4989C6.78798 11.398 11.7626 6.45313 17.8543 6.45313C21.3236 6.45313 23.6491 7.89469 24.9737 9.14812L29.8156 4.57406C26.7067 1.73141 22.6783 0 17.8543 0C7.98533 0 0 7.8214 0 17.5C0 27.1786 7.98533 35 17.8543 35C28.1585 35 35 27.9016 35 17.8992C35 16.7486 34.8717 15.8714 34.7154 14.9997L17.8543 14.9986Z" fill="black"/>
</g>
<defs>
<clipPath id="clip0_39_1078">
<rect width="35" height="35" fill="white"/>
</clipPath>
</defs>
</svg>
