<svg width="24" height="24" viewBox="0 0 24 24" fill="none" xmlns="http://www.w3.org/2000/svg">
<g id="Instagram">
<path id="Vector" d="M12 9C11.2044 9 10.4413 9.31607 9.87868 9.87868C9.31607 10.4413 9 11.2044 9 12C9 12.7956 9.31607 13.5587 9.87868 14.1213C10.4413 14.6839 11.2044 15 12 15C12.7956 15 13.5587 14.6839 14.1213 14.1213C14.6839 13.5587 15 12.7956 15 12C15 11.2044 14.6839 10.4413 14.1213 9.87868C13.5587 9.31607 12.7956 9 12 9ZM12 7C13.3261 7 14.5979 7.52678 15.5355 8.46447C16.4732 9.40215 17 10.6739 17 12C17 13.3261 16.4732 14.5979 15.5355 15.5355C14.5979 16.4732 13.3261 17 12 17C10.6739 17 9.40215 16.4732 8.46447 15.5355C7.52678 14.5979 7 13.3261 7 12C7 10.6739 7.52678 9.40215 8.46447 8.46447C9.40215 7.52678 10.6739 7 12 7ZM18.5 6.75C18.5 7.08152 18.3683 7.39946 18.1339 7.63388C17.8995 7.8683 17.5815 8 17.25 8C16.9185 8 16.6005 7.8683 16.3661 7.63388C16.1317 7.39946 16 7.08152 16 6.75C16 6.41848 16.1317 6.10054 16.3661 5.86612C16.6005 5.6317 16.9185 5.5 17.25 5.5C17.5815 5.5 17.8995 5.6317 18.1339 5.86612C18.3683 6.10054 18.5 6.41848 18.5 6.75ZM12 4C9.526 4 9.122 4.007 7.971 4.058C7.187 4.095 6.661 4.2 6.173 4.39C5.76462 4.53994 5.39541 4.78026 5.093 5.093C4.78001 5.3954 4.53935 5.76458 4.389 6.173C4.199 6.663 4.094 7.188 4.058 7.971C4.006 9.075 3.999 9.461 3.999 12C3.999 14.475 4.006 14.878 4.057 16.029C4.094 16.812 4.199 17.339 4.388 17.826C4.558 18.261 4.758 18.574 5.09 18.906C5.427 19.242 5.74 19.443 6.17 19.609C6.664 19.8 7.19 19.906 7.97 19.942C9.074 19.994 9.46 20 11.999 20C14.474 20 14.877 19.993 16.028 19.942C16.81 19.905 17.336 19.8 17.825 19.611C18.233 19.4603 18.6021 19.2201 18.905 18.908C19.242 18.572 19.443 18.259 19.609 17.828C19.799 17.336 19.905 16.81 19.941 16.028C19.993 14.925 19.999 14.538 19.999 12C19.999 9.526 19.992 9.122 19.941 7.971C19.904 7.189 19.798 6.661 19.609 6.173C19.4583 5.76502 19.218 5.39598 18.906 5.093C18.6037 4.77985 18.2345 4.53917 17.826 4.389C17.336 4.199 16.81 4.094 16.028 4.058C14.925 4.006 14.54 4 12 4ZM12 2C14.717 2 15.056 2.01 16.123 2.06C17.187 2.11 17.913 2.277 18.55 2.525C19.21 2.779 19.766 3.123 20.322 3.678C20.8305 4.1779 21.224 4.78259 21.475 5.45C21.722 6.087 21.89 6.813 21.94 7.878C21.987 8.944 22 9.283 22 12C22 14.717 21.99 15.056 21.94 16.122C21.89 17.187 21.722 17.912 21.475 18.55C21.2246 19.2178 20.8311 19.8226 20.322 20.322C19.822 20.8303 19.2173 21.2238 18.55 21.475C17.913 21.722 17.187 21.89 16.123 21.94C15.056 21.987 14.717 22 12 22C9.283 22 8.944 21.99 7.877 21.94C6.813 21.89 6.088 21.722 5.45 21.475C4.78233 21.2245 4.17753 20.8309 3.678 20.322C3.16943 19.8222 2.77596 19.2175 2.525 18.55C2.277 17.913 2.11 17.187 2.06 16.122C2.012 15.056 2 14.717 2 12C2 9.283 2.01 8.944 2.06 7.878C2.11 6.812 2.277 6.088 2.525 5.45C2.77524 4.78218 3.1688 4.17732 3.678 3.678C4.17767 3.16923 4.78243 2.77573 5.45 2.525C6.087 2.277 6.812 2.11 7.877 2.06C8.944 2.013 9.283 2 12 2Z" fill="black"/>
</g>
</svg>
