<svg width="150" height="136" viewBox="0 0 150 136" fill="none" xmlns="http://www.w3.org/2000/svg">
<path fill-rule="evenodd" clip-rule="evenodd" d="M149.604 49.1891C149.604 26.05 139.289 8.77652 123.238 2.49162C108.377 -3.32736 90.5404 1.02633 74.8021 15.7593C59.0634 1.02633 41.2267 -3.32736 26.3658 2.49169C10.3152 8.77659 0 26.0501 0 49.1894C0 63.9261 7.86577 78.4287 17.6553 90.9147C27.5455 103.529 39.9875 114.824 50.3723 123.251L51.3057 124.009C59.6598 130.798 65.6908 135.699 74.8021 135.699C83.9133 135.699 89.9448 130.798 98.2983 124.009L99.2321 123.251C109.617 114.824 122.059 103.529 131.949 90.9147C141.738 78.4294 149.604 63.9261 149.604 49.1891ZM78.6139 26.7059C93.3085 10.9901 108.544 7.94681 119.433 12.2106C130.346 16.4838 139.167 28.978 139.167 49.1891C139.167 60.4017 133.048 72.5969 123.735 84.4748C114.523 96.2239 102.744 106.959 92.6551 115.146C82.9649 123.009 79.8323 125.261 74.8021 125.261C69.7719 125.261 66.6393 123.009 56.9492 115.146C46.8606 106.959 35.0816 96.2239 25.8691 84.4741C16.556 72.5962 10.4375 60.4017 10.4375 49.1894C10.4375 28.9781 19.2583 16.4839 30.1715 12.2106C41.0606 7.94681 56.2956 10.9901 70.9903 26.7059C71.977 27.7614 73.3568 28.3605 74.8021 28.3605C76.2473 28.3605 77.6272 27.7614 78.6139 26.7059Z" fill="#FFF5E6"/>
<path d="M113.031 34.7085C113.031 31.8263 110.695 29.4897 107.812 29.4897C104.93 29.4897 102.594 31.8263 102.594 34.7085V43.4066H93.8958C91.0136 43.4066 88.677 45.7431 88.677 48.6253C88.677 51.5076 91.0136 53.8441 93.8958 53.8441H102.594V62.5415C102.594 65.4244 104.93 67.7603 107.812 67.7603C110.695 67.7603 113.031 65.4244 113.031 62.5415V53.8441H121.729C124.611 53.8441 126.948 51.5076 126.948 48.6253C126.948 45.7431 124.611 43.4066 121.729 43.4066H113.031V34.7085Z" fill="#FFF5E6"/>
</svg>
