<svg width="42" height="42" viewBox="0 0 42 42" fill="none" xmlns="http://www.w3.org/2000/svg">
<g id="Calendar__nav">
<path id="Vector" d="M0.759036 20.4812C0.759036 12.6526 0.759036 8.73732 3.13128 6.30633C5.50352 3.87533 9.31894 3.87326 16.9518 3.87326H25.0482C32.6811 3.87326 36.4985 3.87326 38.8687 6.30633C41.2389 8.73939 41.241 12.6526 41.241 20.4812V24.6332C41.241 32.4618 41.241 36.3771 38.8687 38.8081C36.4965 41.2391 32.6811 41.2412 25.0482 41.2412H16.9518C9.31894 41.2412 5.50149 41.2412 3.13128 38.8081C0.76106 36.3751 0.759036 32.4618 0.759036 24.6332V20.4812Z" stroke="black" stroke-width="1.5"/>
<path id="Vector_2" d="M10.8795 3.87303V0.759036M31.1205 3.87303V0.759036M1.77108 14.253H40.2289" stroke="black" stroke-width="1.5" stroke-linecap="round"/>
<path id="Vector_3" d="M33.1446 30.8611C33.1446 31.4117 32.9313 31.9397 32.5517 32.3291C32.1721 32.7184 31.6573 32.9371 31.1205 32.9371C30.5837 32.9371 30.0688 32.7184 29.6892 32.3291C29.3096 31.9397 29.0964 31.4117 29.0964 30.8611C29.0964 30.3105 29.3096 29.7825 29.6892 29.3932C30.0688 29.0038 30.5837 28.7851 31.1205 28.7851C31.6573 28.7851 32.1721 29.0038 32.5517 29.3932C32.9313 29.7825 33.1446 30.3105 33.1446 30.8611ZM33.1446 22.5571C33.1446 23.1077 32.9313 23.6358 32.5517 24.0251C32.1721 24.4144 31.6573 24.6331 31.1205 24.6331C30.5837 24.6331 30.0688 24.4144 29.6892 24.0251C29.3096 23.6358 29.0964 23.1077 29.0964 22.5571C29.0964 22.0065 29.3096 21.4785 29.6892 21.0892C30.0688 20.6998 30.5837 20.4811 31.1205 20.4811C31.6573 20.4811 32.1721 20.6998 32.5517 21.0892C32.9313 21.4785 33.1446 22.0065 33.1446 22.5571ZM23.0241 30.8611C23.0241 31.4117 22.8108 31.9397 22.4313 32.3291C22.0517 32.7184 21.5368 32.9371 21 32.9371C20.4632 32.9371 19.9483 32.7184 19.5687 32.3291C19.1892 31.9397 18.9759 31.4117 18.9759 30.8611C18.9759 30.3105 19.1892 29.7825 19.5687 29.3932C19.9483 29.0038 20.4632 28.7851 21 28.7851C21.5368 28.7851 22.0517 29.0038 22.4313 29.3932C22.8108 29.7825 23.0241 30.3105 23.0241 30.8611ZM23.0241 22.5571C23.0241 23.1077 22.8108 23.6358 22.4313 24.0251C22.0517 24.4144 21.5368 24.6331 21 24.6331C20.4632 24.6331 19.9483 24.4144 19.5687 24.0251C19.1892 23.6358 18.9759 23.1077 18.9759 22.5571C18.9759 22.0065 19.1892 21.4785 19.5687 21.0892C19.9483 20.6998 20.4632 20.4811 21 20.4811C21.5368 20.4811 22.0517 20.6998 22.4313 21.0892C22.8108 21.4785 23.0241 22.0065 23.0241 22.5571ZM12.9036 30.8611C12.9036 31.4117 12.6904 31.9397 12.3108 32.3291C11.9312 32.7184 11.4163 32.9371 10.8795 32.9371C10.3427 32.9371 9.82786 32.7184 9.44827 32.3291C9.06867 31.9397 8.85542 31.4117 8.85542 30.8611C8.85542 30.3105 9.06867 29.7825 9.44827 29.3932C9.82786 29.0038 10.3427 28.7851 10.8795 28.7851C11.4163 28.7851 11.9312 29.0038 12.3108 29.3932C12.6904 29.7825 12.9036 30.3105 12.9036 30.8611ZM12.9036 22.5571C12.9036 23.1077 12.6904 23.6358 12.3108 24.0251C11.9312 24.4144 11.4163 24.6331 10.8795 24.6331C10.3427 24.6331 9.82786 24.4144 9.44827 24.0251C9.06867 23.6358 8.85542 23.1077 8.85542 22.5571C8.85542 22.0065 9.06867 21.4785 9.44827 21.0892C9.82786 20.6998 10.3427 20.4811 10.8795 20.4811C11.4163 20.4811 11.9312 20.6998 12.3108 21.0892C12.6904 21.4785 12.9036 22.0065 12.9036 22.5571Z" fill="black"/>
</g>
</svg>
