<svg width="42" height="42" viewBox="0 0 42 42" fill="none" xmlns="http://www.w3.org/2000/svg">
<g id="Home__nav">
<path id="Vector" d="M5.25703 21H0.759036L21 0.759036L41.241 21H36.743M5.25703 21V36.743C5.25703 37.9359 5.73092 39.08 6.57446 39.9235C7.418 40.7671 8.56208 41.241 9.75502 41.241H32.245C33.4379 41.241 34.582 40.7671 35.4255 39.9235C36.2691 39.08 36.743 37.9359 36.743 36.743V21" stroke="black" stroke-width="1.5" stroke-linecap="round" stroke-linejoin="round"/>
<path id="Vector_2" d="M14.2517 41.2414V27.7474C14.2517 26.5545 14.7256 25.4104 15.5691 24.5669C16.4127 23.7233 17.5567 23.2494 18.7497 23.2494H23.2477C24.4406 23.2494 25.5847 23.7233 26.4282 24.5669C27.2718 25.4104 27.7457 26.5545 27.7457 27.7474V41.2414" stroke="black" stroke-width="1.5" stroke-linecap="round" stroke-linejoin="round"/>
</g>
</svg>
