<svg width="52" height="52" viewBox="0 0 52 52" fill="none" xmlns="http://www.w3.org/2000/svg">
<path d="M21.3472 4.65833C22.5306 -0.219444 29.4694 -0.219444 30.6528 4.65833C30.8303 5.39111 31.1784 6.07161 31.6686 6.64444C32.1589 7.21728 32.7775 7.66626 33.474 7.95485C34.1706 8.24344 34.9255 8.36347 35.6772 8.30519C36.4289 8.24691 37.1562 8.01195 37.8 7.61944C42.0861 5.00833 46.9944 9.91389 44.3833 14.2028C43.9914 14.8463 43.7568 15.5732 43.6987 16.3244C43.6405 17.0756 43.7604 17.8299 44.0487 18.5261C44.3369 19.2222 44.7854 19.8405 45.3576 20.3307C45.9298 20.8209 46.6095 21.1692 47.3417 21.3472C52.2194 22.5306 52.2194 29.4694 47.3417 30.6528C46.6089 30.8303 45.9284 31.1784 45.3556 31.6686C44.7827 32.1589 44.3337 32.7775 44.0451 33.474C43.7566 34.1706 43.6365 34.9255 43.6948 35.6772C43.7531 36.4289 43.988 37.1562 44.3806 37.8C46.9917 42.0861 42.0861 46.9944 37.7972 44.3833C37.1537 43.9914 36.4268 43.7568 35.6756 43.6987C34.9244 43.6405 34.1701 43.7604 33.4739 44.0487C32.7778 44.3369 32.1595 44.7854 31.6693 45.3576C31.1791 45.9298 30.8308 46.6095 30.6528 47.3417C29.4694 52.2194 22.5306 52.2194 21.3472 47.3417C21.1697 46.6089 20.8216 45.9284 20.3314 45.3556C19.8411 44.7827 19.2225 44.3337 18.526 44.0451C17.8294 43.7566 17.0745 43.6365 16.3228 43.6948C15.5711 43.7531 14.8438 43.988 14.2 44.3806C9.91389 46.9917 5.00556 42.0861 7.61667 37.7972C8.00861 37.1537 8.2432 36.4268 8.30134 35.6756C8.35949 34.9244 8.23956 34.1701 7.95131 33.4739C7.66306 32.7778 7.21461 32.1595 6.64242 31.6693C6.07024 31.1791 5.39046 30.8308 4.65833 30.6528C-0.219444 29.4694 -0.219444 22.5306 4.65833 21.3472C5.39111 21.1697 6.07161 20.8216 6.64444 20.3314C7.21728 19.8411 7.66626 19.2225 7.95485 18.526C8.24344 17.8294 8.36347 17.0745 8.30519 16.3228C8.24691 15.5711 8.01195 14.8438 7.61944 14.2C5.00833 9.91389 9.91389 5.00556 14.2028 7.61667C16.9806 9.30556 20.5806 7.81111 21.3472 4.65833Z" fill="#FF8E8E" stroke="#FF8E8E" stroke-width="2" stroke-linecap="round" stroke-linejoin="round"/>
<path d="M17.668 26.0003C17.668 28.2105 18.5459 30.3301 20.1087 31.8929C21.6715 33.4557 23.7912 34.3337 26.0013 34.3337C28.2114 34.3337 30.3311 33.4557 31.8939 31.8929C33.4567 30.3301 34.3346 28.2105 34.3346 26.0003C34.3346 23.7902 33.4567 21.6706 31.8939 20.1078C30.3311 18.545 28.2114 17.667 26.0013 17.667C23.7912 17.667 21.6715 18.545 20.1087 20.1078C18.5459 21.6706 17.668 23.7902 17.668 26.0003Z" fill="#F4E1E0" stroke="#FF8E8E" stroke-width="2" stroke-linecap="round" stroke-linejoin="round"/>
</svg>
