<svg width="39" height="36" viewBox="0 0 39 36" fill="none" xmlns="http://www.w3.org/2000/svg">
<path d="M15.7651 2.20388C17.3938 -0.734627 21.5959 -0.734627 23.2247 2.20388L38.4534 29.5917C38.8185 30.2469 39.0069 30.987 38.9998 31.7383C38.9927 32.4896 38.7903 33.2259 38.4127 33.874C38.0352 34.5221 37.4957 35.0593 36.8479 35.4323C36.2001 35.8053 35.4666 36.001 34.7203 36H4.28247C3.53584 36.0009 2.80196 35.8051 2.15383 35.4319C1.50569 35.0588 0.965869 34.5213 0.588045 33.8729C0.210221 33.2246 0.00755748 32.488 0.000207308 31.7363C-0.00714286 30.9846 0.181076 30.2441 0.546148 29.5884L15.7651 2.20388ZM22.7523 22.839V9.72069H16.2374V22.839H22.7523ZM19.4949 32.6778C20.3588 32.6778 21.1874 32.3323 21.7983 31.7172C22.4092 31.1022 22.7523 30.268 22.7523 29.3982C22.7523 28.5284 22.4092 27.6942 21.7983 27.0792C21.1874 26.4641 20.3588 26.1186 19.4949 26.1186C18.6309 26.1186 17.8024 26.4641 17.1915 27.0792C16.5806 27.6942 16.2374 28.5284 16.2374 29.3982C16.2374 30.268 16.5806 31.1022 17.1915 31.7172C17.8024 32.3323 18.6309 32.6778 19.4949 32.6778Z" fill="#FFC4C5"/>
</svg>
