<svg width="41" height="50" viewBox="0 0 41 50" fill="none" xmlns="http://www.w3.org/2000/svg">
<path d="M14.7573 6.79311C14.7573 5.64734 15.0939 4.5273 15.7245 3.57463C16.3551 2.62196 17.2514 1.87944 18.3001 1.44098C19.3487 1.00251 20.5026 0.887787 21.6158 1.11132C22.7291 1.33484 23.7517 1.88658 24.5543 2.69676C25.3569 3.50694 25.9034 4.53918 26.1249 5.66293C26.3463 6.78668 26.2327 7.95148 25.7983 9.01003C25.3639 10.0686 24.6284 10.9733 23.6846 11.6099C22.7408 12.2464 21.6313 12.5862 20.4962 12.5862C18.9742 12.5862 17.5145 11.9759 16.4382 10.8894C15.362 9.80303 14.7573 8.32953 14.7573 6.79311ZM40.9103 18.4972C40.7609 17.7557 40.3597 17.09 39.776 16.6152C39.1922 16.1404 38.4626 15.8862 37.7129 15.8966H3.27954C2.53189 15.8965 1.80667 16.1544 1.22408 16.6274C0.641482 17.1004 0.236493 17.7601 0.0762303 18.4973C-0.0840327 19.2345 0.0100523 20.0048 0.342893 20.6806C0.675733 21.3564 1.22734 21.8971 1.90631 22.2131H1.9186L12.9639 27.1228L8.4712 44.3572C8.12833 45.149 8.10576 46.0447 8.40831 46.8531C8.71085 47.6614 9.31453 48.3183 10.0904 48.6834C10.524 48.8913 10.9979 48.9994 11.478 49C12.0962 49.0009 12.702 48.8254 13.2257 48.4938C13.7493 48.1621 14.1695 47.6878 14.4376 47.1255L20.4962 36.5862L26.559 47.1379C26.9361 47.9123 27.5978 48.5074 28.4031 48.7965C29.2085 49.0856 30.0938 49.0459 30.8706 48.6858C31.6473 48.3257 32.2541 47.6737 32.5617 46.8687C32.8693 46.0636 32.8533 45.1692 32.5172 44.3759L28.0245 27.1414L39.0923 22.2255C39.7792 21.9164 40.3371 21.3743 40.6692 20.6932C41.0013 20.0122 41.0866 19.2352 40.9103 18.4972Z" fill="#FF8E8E"/>
</svg>
